<?xml version="1.0" encoding="UTF-8" standalone="no"?>
<!-- Created with Inkscape (http://www.inkscape.org/) -->

<svg
   width="40mm"
   height="620mm"
   viewBox="0 0 400 6200"
   version="1.1"
   id="svg5"
   inkscape:version="1.2.2 (732a01da63, 2022-12-09)"
   sodipodi:docname="cable_shadow.svg"
   xml:space="preserve"
   inkscape:export-filename="omni.png"
   inkscape:export-xdpi="254.00073"
   inkscape:export-ydpi="254.00073"
   xmlns:inkscape="http://www.inkscape.org/namespaces/inkscape"
   xmlns:sodipodi="http://sodipodi.sourceforge.net/DTD/sodipodi-0.dtd"
   xmlns="http://www.w3.org/2000/svg"
   xmlns:svg="http://www.w3.org/2000/svg"><sodipodi:namedview
     id="namedview7"
     pagecolor="#505050"
     bordercolor="#eeeeee"
     borderopacity="1"
     inkscape:showpageshadow="0"
     inkscape:pageopacity="0"
     inkscape:pagecheckerboard="false"
     inkscape:deskcolor="#505050"
     inkscape:document-units="mm"
     showgrid="false"
     inkscape:zoom="1"
     inkscape:cx="-95.5"
     inkscape:cy="2409.5"
     inkscape:current-layer="layer1"
     inkscape:window-width="3840"
     inkscape:window-height="2109"
     inkscape:window-x="0"
     inkscape:window-y="27"
     inkscape:window-maximized="1"
     showguides="true" /><defs
     id="defs2"><filter
       inkscape:collect="always"
       style="color-interpolation-filters:sRGB"
       id="filter2464"
       x="-0.46418591"
       y="-0.013151973"
       width="1.9283718"
       height="1.0263039"><feGaussianBlur
         inkscape:collect="always"
         stdDeviation="32.879936"
         id="feGaussianBlur2466" /></filter></defs><g
     inkscape:label="Layer 1"
     inkscape:groupmode="layer"
     id="layer1"
     style="display:inline">
	 
	   
	   
	   
	   
	   
	   
	   
	   
	   
	   
	   
	   <path
   id="rect4445"
   style="opacity:1;fill:#000000;fill-opacity:1;stroke:none;stroke-width:133.461;stroke-linejoin:round;stroke-dasharray:none;paint-order:stroke fill markers;filter:url(#filter2464)"
   inkscape:label="cable"
   d="m 119.99784,100 v 220.00207 h -0.52193 c -2.69065,-0.037 -4.69511,1.77104 -4.45968,5.50354 l 9.07955,159.37528 c 0.23171,2.8145 2.50343,5.09414 5.26583,5.12114 h 0.59428 v 19.99878 h 0.005 c 0.009,0.002 8.88526,1.76991 11.28096,5.1418 1.14806,1.6159 1.40949,4.13362 0.55294,5.92212 -1.75764,3.6699 -10.16992,6.71794 -10.16992,6.71794 l 0.54777,5.92212 h 0.005 c 0.009,0.002 8.88528,1.76991 11.28096,5.1418 1.14807,1.6159 1.4095,4.13362 0.55294,5.92212 -0.87835,1.83395 -3.42338,3.5091 -5.74642,4.72839 -2.32181,1.21828 -4.42459,1.9829 -4.42867,1.98438 l 0.55294,5.92728 c 0,0 8.8841,1.76871 11.28096,5.14181 1.14807,1.6159 1.41466,4.13362 0.55811,5.92212 -0.87835,1.83395 -3.42338,3.50912 -5.74642,4.72839 -2.32181,1.21825 -4.42459,1.9829 -4.42867,1.98438 l 0.55294,5.92728 c 0,0 2.22199,0.4385 4.74389,1.30225 h 0.005 c 1.25967,0.43162 2.59298,0.97288 3.76204,1.6123 h 0.005 c 1.16872,0.63969 2.17131,1.38481 2.76986,2.22726 1.14807,1.6159 1.40949,4.13362 0.55294,5.92212 -1.75679,3.6681 -10.16692,6.70981 -10.17509,6.71277 l 0.55294,5.92728 c 0,0 4.99982,0.99031 8.5111,2.90939 h 0.005 c 1.16872,0.6392 2.17133,1.38481 2.76986,2.22725 1.14807,1.6159 1.40949,4.13879 0.55294,5.92729 -1.75763,3.66988 -10.17509,6.71277 -10.17509,6.71277 l 0.55293,5.92728 c 0,0 8.88924,1.76304 11.28614,5.13664 1.14805,1.6159 1.40948,4.13879 0.55293,5.92729 -1.75763,3.66988 -10.17508,6.71276 -10.17508,6.71276 l 0.55293,5.92729 c 0,0 8.88925,1.76304 11.28614,5.13664 1.14808,1.6159 1.40946,4.1388 0.55293,5.92728 -0.43941,0.91748 -1.29124,1.79281 -2.32027,2.59416 -1.02789,0.80048 -2.2388,1.52492 -3.38997,2.13424 -2.302,1.21737 -4.38733,1.98437 -4.38733,1.98437 v 4.99711 0.005 c 0,3.3168 1.73769,4.99711 4.99711,4.99711 h 0.005 24.99589 V 6100.0006 h 50.00211 V 680.00076 h 24.99589 0.005 c 3.25573,-0.002 4.99711,-1.68225 4.99711,-4.99711 v -0.005 -4.99711 c 0,0 -8.33994,-3.04287 -10.09757,-6.71277 -0.85653,-1.78848 -0.59515,-4.31138 0.55293,-5.92728 2.3969,-3.3736 11.28614,-5.13664 11.28614,-5.13664 l 0.55293,-5.92729 c 0,0 -8.41745,-3.04288 -10.17509,-6.71276 -0.85654,-1.7885 -0.59512,-4.31139 0.55294,-5.92729 2.39691,-3.3736 11.28614,-5.13664 11.28614,-5.13664 l 0.55293,-5.92728 c 0,0 -8.41745,-3.04289 -10.17509,-6.71277 -0.85656,-1.7885 -0.59513,-4.31139 0.55294,-5.92729 2.39687,-3.3736 11.28613,-5.13664 11.28613,-5.13664 l 0.55294,-5.92728 c 0,0 -8.41744,-3.04289 -10.17509,-6.71277 -0.42827,-0.89425 -0.57593,-1.97327 -0.47542,-3.02824 0.10143,-1.05498 0.45432,-2.08593 1.02836,-2.89388 0.59946,-0.84222 1.60545,-1.5878 2.77502,-2.22726 3.51254,-1.91907 8.51111,-2.91455 8.51111,-2.91455 l 0.55294,-5.92728 h -0.005 c 0,0 -8.41227,-3.04289 -10.16992,-6.71277 -0.42828,-0.89425 -0.57722,-1.97324 -0.47542,-3.02824 0.10272,-1.055 0.4595,-2.08593 1.03353,-2.89388 2.39985,-3.37123 11.28096,-5.14181 11.28096,-5.14181 l 0.55294,-5.92728 h -0.005 c 0,0 -2.10213,-0.76699 -4.4235,-1.98438 h -0.005 c -1.16077,-0.60906 -2.37508,-1.33392 -3.41064,-2.13423 -1.03623,-0.80135 -1.8912,-1.67669 -2.33061,-2.59416 -0.42828,-0.89425 -0.57814,-1.97327 -0.47542,-3.02824 0.10309,-1.05497 0.45432,-2.08593 1.02836,-2.89388 2.39689,-3.3736 11.28096,-5.1418 11.28096,-5.1418 h 0.005 l 0.54777,-5.92212 c 0,0 -2.10213,-0.76572 -4.4235,-1.98438 h -0.005 c -1.16077,-0.6097 -2.37507,-1.33861 -3.41064,-2.1394 -1.03622,-0.80183 -1.8912,-1.67669 -2.33061,-2.59416 -0.42828,-0.89425 -0.57814,-1.97326 -0.47542,-3.02824 0.10309,-1.05497 0.45434,-2.08593 1.02836,-2.89388 2.39691,-3.3736 11.28096,-5.1418 11.28096,-5.1418 h 0.005 V 490.0022 h 0.59428 c 1.3812,-0.0135 2.64028,-0.5942 3.58118,-1.51929 0.94132,-0.92509 1.5688,-2.1946 1.68465,-3.60185 l 9.07955,-159.37528 c 0.23543,-3.7325 -1.76903,-5.54054 -4.45968,-5.50354 h -0.52193 V 100 Z" /></g></svg>
