<?xml version="1.0" encoding="UTF-8" standalone="no"?>
<!-- Created with Inkscape (http://www.inkscape.org/) -->

<svg
   width="130mm"
   height="185mm"
   viewBox="0 0 1300 1850"
   version="1.1"
   id="svg5"
   inkscape:version="1.2.2 (732a01da63, 2022-12-09)"
   sodipodi:docname="cable_bent_shadow.svg"
   xml:space="preserve"
   inkscape:export-filename="cable_bent_shadow.webp"
   inkscape:export-xdpi="254.00073"
   inkscape:export-ydpi="254.00073"
   xmlns:inkscape="http://www.inkscape.org/namespaces/inkscape"
   xmlns:sodipodi="http://sodipodi.sourceforge.net/DTD/sodipodi-0.dtd"
   xmlns="http://www.w3.org/2000/svg"
   xmlns:svg="http://www.w3.org/2000/svg"><sodipodi:namedview
     id="namedview7"
     pagecolor="#505050"
     bordercolor="#eeeeee"
     borderopacity="1"
     inkscape:showpageshadow="0"
     inkscape:pageopacity="0"
     inkscape:pagecheckerboard="false"
     inkscape:deskcolor="#505050"
     inkscape:document-units="mm"
     showgrid="false"
     inkscape:zoom="0.70710678"
     inkscape:cx="147.78532"
     inkscape:cy="347.18943"
     inkscape:current-layer="layer1"
     inkscape:window-width="3840"
     inkscape:window-height="2109"
     inkscape:window-x="0"
     inkscape:window-y="27"
     inkscape:window-maximized="1"
     showguides="true" /><defs
     id="defs2"><linearGradient
   id="linearGradient4474"><stop
     style="stop-color:#0f0f0f;stop-opacity:1;"
     offset="0"
     id="stop1092" /><stop
     style="stop-color:#161616;stop-opacity:1;"
     offset="0.08780488"
     id="stop1094" /><stop
     style="stop-color:#4b4b4b;stop-opacity:1;"
     offset="0.13495934"
     id="stop1096" /><stop
     style="stop-color:#4c4c4c;stop-opacity:1;"
     offset="0.23252033"
     id="stop1098" /><stop
     style="stop-color:#161616;stop-opacity:1;"
     offset="0.33821136"
     id="stop1100" /><stop
     style="stop-color:#1d1d1d;stop-opacity:1;"
     offset="0.58730596"
     id="stop1102" /><stop
     style="stop-color:#7d7d7d;stop-opacity:1;"
     offset="0.73251098"
     id="stop1104" /><stop
     style="stop-color:#7b7b7b;stop-opacity:1;"
     offset="0.82357723"
     id="stop1106" /><stop
     style="stop-color:#090909;stop-opacity:1;"
     offset="1"
     id="stop1108" /></linearGradient><linearGradient
   id="linearGradient4474-1"><stop
     style="stop-color:#090909;stop-opacity:1;"
     offset="0.95143855"
     id="stop4472" /><stop
     style="stop-color:#7b7b7b;stop-opacity:1;"
     offset="0.9598496"
     id="stop4484" /><stop
     style="stop-color:#7d7d7d;stop-opacity:1;"
     offset="0.96453476"
     id="stop4478" /><stop
     style="stop-color:#1d1d1d;stop-opacity:1;"
     offset="0.97134894"
     id="stop4482" /><stop
     style="stop-color:#161616;stop-opacity:1;"
     offset="0.98377508"
     id="stop11759" /><stop
     style="stop-color:#4c4c4c;stop-opacity:1;"
     offset="0.98873448"
     id="stop11761" /><stop
     style="stop-color:#4b4b4b;stop-opacity:1;"
     offset="0.99368465"
     id="stop11765" /><stop
     style="stop-color:#161616;stop-opacity:1;"
     offset="0.99609345"
     id="stop11763" /><stop
     style="stop-color:#0f0f0f;stop-opacity:1;"
     offset="1"
     id="stop4470" /></linearGradient>
		 <filter
   inkscape:collect="always"
   style="color-interpolation-filters:sRGB"
   id="filter1801"
   x="-0.071344635"
   y="-0.04822999"
   width="1.1426893"
   height="1.09646"><feGaussianBlur
     inkscape:collect="always"
     stdDeviation="32.253755"
     id="feGaussianBlur1803" /></filter></defs><g
     inkscape:label="Layer 1"
     inkscape:groupmode="layer"
     id="layer1"
     style="display:inline">
	 
	   
	   
	   
	   
	   
	   
	   
	   
	   
	   
	   
	   <path
   id="path1125"
   style="color:#000000;fill:#000000;fill-opacity:1;stroke-linejoin:round;-inkscape-stroke:none;paint-order:stroke fill markers;filter:url(#filter1801)"
   d="m 119.99878,100 v 220.00208 h -0.52193 c -2.69065,-0.037 -4.69511,1.77104 -4.45968,5.50354 l 9.07955,159.37528 c 0.11585,1.40725 0.74246,2.67676 1.68465,3.60185 0.94133,0.92508 2.19998,1.50578 3.58118,1.51928 h 0.59428 v 19.99878 h 0.005 c 0,0 8.88405,1.76821 11.28096,5.14181 0.57403,0.80795 0.92564,1.8389 1.02836,2.89388 0.1018,1.05497 -0.0472,2.13399 -0.47542,3.02824 -0.43941,0.91747 -1.29479,1.79234 -2.33061,2.59415 -3.10872,2.40412 -7.83931,4.12378 -7.83931,4.12378 l 0.54777,5.92212 h 0.005 c 0,0 8.88407,1.76821 11.28097,5.14181 0.57403,0.80795 0.92563,1.8389 1.02836,2.89388 0.10179,1.05497 -0.0471,2.13399 -0.47543,3.02824 -0.43941,0.91747 -1.2943,1.79281 -2.3306,2.59415 -3.1069,2.4025 -7.83319,4.1164 -7.83932,4.11862 h -0.005 l 0.55294,5.92728 c 0,0 5.00089,0.99408 8.51111,2.91455 1.16994,0.64016 2.17064,1.38398 2.76985,2.22726 0.57404,0.80795 0.93045,1.83888 1.03353,2.89388 0.10272,1.055 -0.0471,2.13399 -0.47542,3.02824 -0.43941,0.91747 -1.29439,1.79281 -2.33061,2.59415 -3.10689,2.40247 -7.83318,4.1164 -7.83931,4.11862 h -0.005 l 0.55293,5.92728 c 0,0 2.22199,0.4385 4.7439,1.30225 h 0.005 c 1.25967,0.43162 2.59297,0.97286 3.76204,1.6123 h 0.005 c 1.16873,0.63969 2.17131,1.38481 2.76986,2.22726 0.57404,0.80795 0.92657,1.8389 1.02836,2.89388 0.10144,1.05497 -0.0472,2.13399 -0.47542,3.02824 -0.87882,1.83493 -3.42257,3.50893 -5.74642,4.72839 -2.3218,1.21828 -4.41942,1.9829 -4.4235,1.98437 h -0.005 l 0.55293,5.92729 c 0,0 2.22163,0.4398 4.7439,1.30225 1.26096,0.43122 2.59679,0.96745 3.76721,1.60713 h 0.005 c 1.16873,0.63921 2.17132,1.38482 2.76986,2.22726 0.57403,0.80795 0.92657,1.84277 1.02836,2.89905 0.10143,1.05627 -0.0471,2.13399 -0.47542,3.02824 -1.75764,3.66988 -10.17509,6.71276 -10.17509,6.71276 l 0.55294,5.92729 c 0,0 8.88922,1.76304 11.28613,5.13664 1.14806,1.6159 1.40948,4.13879 0.55294,5.92729 -1.75765,3.66988 -10.17509,6.71276 -10.17509,6.71276 l 0.55293,5.92729 c 0,0 8.88924,1.76304 11.28614,5.13664 1.14808,1.6159 1.40946,4.1388 0.55293,5.92728 -1.75764,3.6699 -10.09757,6.71277 -10.09757,6.71277 v 4.99711 0.005 c 0.001,2.48426 0.97904,4.05395 2.8422,4.68189 0.62127,0.20935 1.34006,0.31522 2.15491,0.31522 h 0.005 24.99589 c 0,271.83648 108.00198,532.5652 300.2194,724.7826 192.21741,192.2174 452.94618,300.2142 724.7826,300.2142 v -49.9969 c -258.59484,0 -506.57654,-102.7149 -689.43076,-285.5691 C 327.71506,1186.5772 225.00012,938.59567 225.00012,680.00077 h 24.99589 c 0.81486,0 1.53833,-0.10587 2.16008,-0.31522 1.8646,-0.62843 2.8422,-2.19946 2.8422,-4.68706 v -4.99711 c 0,0 -8.33995,-3.04287 -10.09757,-6.71277 -0.85653,-1.78848 -0.59513,-4.31138 0.55293,-5.92728 2.3969,-3.3736 11.28614,-5.13664 11.28614,-5.13664 l 0.55293,-5.92729 c 0,0 -8.41746,-3.04288 -10.17508,-6.71276 -0.85655,-1.7885 -0.59513,-4.31139 0.55293,-5.92729 2.39691,-3.3736 11.28614,-5.13664 11.28614,-5.13664 l 0.55293,-5.92729 c 0,0 -8.41745,-3.04288 -10.17509,-6.71276 -0.85656,-1.7885 -0.59513,-4.31139 0.55294,-5.92729 2.39687,-3.3736 11.28613,-5.13664 11.28613,-5.13664 l 0.55294,-5.92729 c 0,0 -8.41744,-3.04288 -10.17509,-6.71276 -0.42827,-0.89425 -0.57592,-1.97327 -0.47542,-3.02824 0.10143,-1.05498 0.45433,-2.08593 1.02836,-2.89388 2.39991,-3.37174 11.28613,-5.14181 11.28613,-5.14181 l 0.55294,-5.92728 h -0.005 c 0,0 -8.41227,-3.04289 -10.16992,-6.71277 -0.42827,-0.89425 -0.57722,-1.97324 -0.47542,-3.02824 0.10272,-1.055 0.45949,-2.08593 1.03353,-2.89388 2.39984,-3.37124 11.28096,-5.14181 11.28096,-5.14181 l 0.55294,-5.92728 h -0.005 c 0,0 -2.10212,-0.76699 -4.4235,-1.98438 h -0.005 c -1.16077,-0.60907 -2.37507,-1.33392 -3.41064,-2.13424 -1.03622,-0.80134 -1.8912,-1.67668 -2.33061,-2.59415 -0.42828,-0.89425 -0.57814,-1.97327 -0.47542,-3.02824 0.10309,-1.05498 0.45432,-2.08593 1.02836,-2.89388 2.3969,-3.3736 11.28096,-5.14181 11.28096,-5.14181 h 0.005 l 0.54777,-5.92212 c 0,0 -4.73036,-1.71966 -7.83931,-4.12378 -1.03623,-0.80181 -1.8912,-1.67668 -2.33061,-2.59415 -0.42827,-0.89425 -0.57815,-1.97327 -0.47542,-3.02824 0.10309,-1.05498 0.45433,-2.08593 1.02836,-2.89388 2.39692,-3.3736 11.28096,-5.14181 11.28096,-5.14181 h 0.005 v -19.99878 h 0.59428 c 1.3812,-0.0135 2.64028,-0.5942 3.58118,-1.51928 0.94132,-0.92509 1.56879,-2.1946 1.68465,-3.60185 l 9.07955,-159.37528 c 0.23543,-3.7325 -1.76903,-5.54054 -4.45968,-5.50354 h -0.52193 V 100 Z"
   inkscape:label="shadow" /></g></svg>
