<?xml version="1.0" encoding="UTF-8" standalone="no"?>
<!--
Copyright 2024 Simon Vetter

This file is part of Stereophonic Calculator.

Stereophonic Calculator is free software: you can redistribute it and/or modify it under the terms
of the GNU General Public License as published by the Free Software Foundation, either version 3 of
the License, or (at your option) any later version.

Stereophonic Calculator is distributed in the hope that it will be useful, but WITHOUT ANY WARRANTY;
without even the implied warranty of MERCHANTABILITY or FITNESS FOR A PARTICULAR PURPOSE. See the
GNU General Public License for more details.

You should have received a copy of the GNU General Public License along with Stereophonic
Calculator. If not, see <https://www.gnu.org/licenses/>.
-->

<svg
   width="110mm"
   height="165mm"
   viewBox="0 0 1100 1650"
   version="1.1"
   id="svg5"
   inkscape:version="1.2.2 (732a01da63, 2022-12-09)"
   sodipodi:docname="cable_bent.svg"
   xml:space="preserve"
   inkscape:export-filename="omni.png"
   inkscape:export-xdpi="254.00073"
   inkscape:export-ydpi="254.00073"
   xmlns:inkscape="http://www.inkscape.org/namespaces/inkscape"
   xmlns:sodipodi="http://sodipodi.sourceforge.net/DTD/sodipodi-0.dtd"
   xmlns:xlink="http://www.w3.org/1999/xlink"
   xmlns="http://www.w3.org/2000/svg"
   xmlns:svg="http://www.w3.org/2000/svg"><sodipodi:namedview
     id="namedview7"
     pagecolor="#505050"
     bordercolor="#eeeeee"
     borderopacity="1"
     inkscape:showpageshadow="0"
     inkscape:pageopacity="0"
     inkscape:pagecheckerboard="false"
     inkscape:deskcolor="#505050"
     inkscape:document-units="mm"
     showgrid="false"
     inkscape:zoom="1"
     inkscape:cx="264.5"
     inkscape:cy="315.5"
     inkscape:current-layer="layer1"
     inkscape:window-width="3840"
     inkscape:window-height="2109"
     inkscape:window-x="0"
     inkscape:window-y="27"
     inkscape:window-maximized="1"
     showguides="true" /><defs
     id="defs2"><linearGradient
   id="linearGradient4474"><stop
     style="stop-color:#0f0f0f;stop-opacity:1;"
     offset="0"
     id="stop1092" /><stop
     style="stop-color:#161616;stop-opacity:1;"
     offset="0.08780488"
     id="stop1094" /><stop
     style="stop-color:#4b4b4b;stop-opacity:1;"
     offset="0.13495934"
     id="stop1096" /><stop
     style="stop-color:#4c4c4c;stop-opacity:1;"
     offset="0.23252033"
     id="stop1098" /><stop
     style="stop-color:#161616;stop-opacity:1;"
     offset="0.33821136"
     id="stop1100" /><stop
     style="stop-color:#1d1d1d;stop-opacity:1;"
     offset="0.58730596"
     id="stop1102" /><stop
     style="stop-color:#7d7d7d;stop-opacity:1;"
     offset="0.73251098"
     id="stop1104" /><stop
     style="stop-color:#7b7b7b;stop-opacity:1;"
     offset="0.82357723"
     id="stop1106" /><stop
     style="stop-color:#090909;stop-opacity:1;"
     offset="1"
     id="stop1108" /></linearGradient><linearGradient
   inkscape:collect="always"
   id="linearGradient4657"><stop
     style="stop-color:#000000;stop-opacity:0.84641069;"
     offset="0"
     id="stop4667" /><stop
     style="stop-color:#000000;stop-opacity:0;"
     offset="0.02263649"
     id="stop4665" /><stop
     style="stop-color:#000000;stop-opacity:0;"
     offset="0.44946402"
     id="stop4649" /><stop
     style="stop-color:#000000;stop-opacity:0.85478073;"
     offset="0.4675988"
     id="stop4655" /><stop
     style="stop-color:#000000;stop-opacity:0.30122215;"
     offset="0.47521508"
     id="stop4661" /><stop
     style="stop-color:#000000;stop-opacity:0;"
     offset="0.48565084"
     id="stop4663" /><stop
     style="stop-color:#000000;stop-opacity:0;"
     offset="0.52063912"
     id="stop4673" /><stop
     style="stop-color:#060606;stop-opacity:0.89983308;"
     offset="0.52881193"
     id="stop4669" /><stop
     style="stop-color:#000000;stop-opacity:0;"
     offset="0.55425769"
     id="stop4671" /><stop
     style="stop-color:#000000;stop-opacity:0;"
     offset="0.56285942"
     id="stop5407" /><stop
     style="stop-color:#000000;stop-opacity:0.70452911;"
     offset="0.57371563"
     id="stop5405" /><stop
     style="stop-color:#000000;stop-opacity:0;"
     offset="0.57689399"
     id="stop4677" /><stop
     style="stop-color:#000000;stop-opacity:0;"
     offset="0.59170443"
     id="stop7442" /><stop
     style="stop-color:#000000;stop-opacity:0.9015097;"
     offset="0.5950374"
     id="stop7444" /><stop
     style="stop-color:#000000;stop-opacity:0;"
     offset="0.62134451"
     id="stop7446" /><stop
     style="stop-color:#000000;stop-opacity:0;"
     offset="0.62709957"
     id="stop7448" /><stop
     style="stop-color:#000000;stop-opacity:0.70165342;"
     offset="0.6399833"
     id="stop7450" /><stop
     style="stop-color:#000000;stop-opacity:0;"
     offset="0.64273417"
     id="stop7452" /><stop
     style="stop-color:#000000;stop-opacity:0;"
     offset="0.65723944"
     id="stop7454" /><stop
     style="stop-color:#000000;stop-opacity:0.89719617;"
     offset="0.66018945"
     id="stop7456" /><stop
     style="stop-color:#000000;stop-opacity:0;"
     offset="0.68696409"
     id="stop7458" /><stop
     style="stop-color:#000000;stop-opacity:0;"
     offset="0.69288719"
     id="stop7460" /><stop
     style="stop-color:#000000;stop-opacity:0.69949675;"
     offset="0.70535761"
     id="stop7462" /><stop
     style="stop-color:#000000;stop-opacity:0;"
     offset="0.70771337"
     id="stop7464" /><stop
     style="stop-color:#000000;stop-opacity:0;"
     offset="0.72310728"
     id="stop7466" /><stop
     style="stop-color:#000000;stop-opacity:0.9015097;"
     offset="0.72571307"
     id="stop7468" /><stop
     style="stop-color:#000000;stop-opacity:0;"
     offset="0.75081825"
     id="stop7470" /><stop
     style="stop-color:#000000;stop-opacity:0;"
     offset="0.75778812"
     id="stop7472" /><stop
     style="stop-color:#000000;stop-opacity:0.69662112;"
     offset="0.77115053"
     id="stop7474" /><stop
     style="stop-color:#000000;stop-opacity:0;"
     offset="0.77317518"
     id="stop7476" /><stop
     style="stop-color:#000000;stop-opacity:0;"
     offset="0.78807515"
     id="stop7478" /><stop
     style="stop-color:#000000;stop-opacity:0.90222859;"
     offset="0.79155731"
     id="stop7480" /><stop
     style="stop-color:#000000;stop-opacity:0;"
     offset="0.81697446"
     id="stop7482" /><stop
     style="stop-color:#000000;stop-opacity:0;"
     offset="0.82185042"
     id="stop7484" /><stop
     style="stop-color:#000000;stop-opacity:0.70093459;"
     offset="0.83593553"
     id="stop7486" /><stop
     style="stop-color:#000000;stop-opacity:0;"
     offset="0.83837211"
     id="stop7488" /><stop
     style="stop-color:#000000;stop-opacity:0;"
     offset="0.85400206"
     id="stop7490" /><stop
     style="stop-color:#000000;stop-opacity:0.90007192;"
     offset="0.85709494"
     id="stop7492" /><stop
     style="stop-color:#000000;stop-opacity:0;"
     offset="0.88242334"
     id="stop7494" /><stop
     style="stop-color:#000000;stop-opacity:0;"
     offset="0.88761991"
     id="stop7496" /><stop
     style="stop-color:#000000;stop-opacity:0.69590223;"
     offset="0.90285093"
     id="stop7498" /><stop
     style="stop-color:#000000;stop-opacity:0;"
     offset="0.90593898"
     id="stop7500" /><stop
     style="stop-color:#000000;stop-opacity:0;"
     offset="0.91937774"
     id="stop7502" /><stop
     style="stop-color:#000000;stop-opacity:0.89575845;"
     offset="0.92295063"
     id="stop7504" /><stop
     style="stop-color:#000000;stop-opacity:0;"
     offset="0.95111746"
     id="stop7506" /><stop
     style="stop-color:#000000;stop-opacity:0;"
     offset="0.95590591"
     id="stop7508" /><stop
     style="stop-color:#000000;stop-opacity:0.69518334;"
     offset="0.96959233"
     id="stop7510" /><stop
     style="stop-color:#000000;stop-opacity:0;"
     offset="0.97187108"
     id="stop7512" /><stop
     style="stop-color:#000000;stop-opacity:0;"
     offset="0.98637807"
     id="stop7518" /><stop
     style="stop-color:#000000;stop-opacity:0.84987277;"
     offset="0.99812031"
     id="stop7516" /></linearGradient><linearGradient
   inkscape:collect="always"
   id="linearGradient4638"><stop
     style="stop-color:#252525;stop-opacity:1;"
     offset="0.21780303"
     id="stop4630" /><stop
     style="stop-color:#7d7d7d;stop-opacity:1;"
     offset="0.58333337"
     id="stop4632" /><stop
     style="stop-color:#262626;stop-opacity:1;"
     offset="0.85037881"
     id="stop4634" /><stop
     style="stop-color:#161616;stop-opacity:1;"
     offset="0.99810606"
     id="stop4636" /></linearGradient><linearGradient
   inkscape:collect="always"
   id="linearGradient4521"><stop
     style="stop-color:#252525;stop-opacity:1;"
     offset="0"
     id="stop4533" /><stop
     style="stop-color:#7d7d7d;stop-opacity:1;"
     offset="0.36363637"
     id="stop4527" /><stop
     style="stop-color:#262626;stop-opacity:1;"
     offset="0.70265156"
     id="stop4529" /><stop
     style="stop-color:#161616;stop-opacity:1;"
     offset="1"
     id="stop4519" /></linearGradient><linearGradient
   inkscape:collect="always"
   id="linearGradient4491"><stop
     style="stop-color:#070707;stop-opacity:1;"
     offset="0"
     id="stop4487" /><stop
     style="stop-color:#1f1f1f;stop-opacity:1;"
     offset="0.04734848"
     id="stop4515" /><stop
     style="stop-color:#858585;stop-opacity:1;"
     offset="0.10039726"
     id="stop4513" /><stop
     style="stop-color:#808080;stop-opacity:1;"
     offset="0.17586844"
     id="stop4511" /><stop
     style="stop-color:#111111;stop-opacity:1;"
     offset="0.24110308"
     id="stop4509" /><stop
     style="stop-color:#262626;stop-opacity:1;"
     offset="0.63068181"
     id="stop4497" /><stop
     style="stop-color:#999999;stop-opacity:1;"
     offset="0.69886363"
     id="stop4503" /><stop
     style="stop-color:#999999;stop-opacity:1;"
     offset="0.8125"
     id="stop4495" /><stop
     style="stop-color:#2f2f2f;stop-opacity:1;"
     offset="0.86363631"
     id="stop4499" /><stop
     style="stop-color:#0e0e0e;stop-opacity:1;"
     offset="1"
     id="stop4489" /></linearGradient><linearGradient
   id="linearGradient4474-1"><stop
     style="stop-color:#090909;stop-opacity:1;"
     offset="0.95143855"
     id="stop4472" /><stop
     style="stop-color:#7b7b7b;stop-opacity:1;"
     offset="0.9598496"
     id="stop4484" /><stop
     style="stop-color:#7d7d7d;stop-opacity:1;"
     offset="0.96453476"
     id="stop4478" /><stop
     style="stop-color:#1d1d1d;stop-opacity:1;"
     offset="0.97134894"
     id="stop4482" /><stop
     style="stop-color:#161616;stop-opacity:1;"
     offset="0.98377508"
     id="stop11759" /><stop
     style="stop-color:#4c4c4c;stop-opacity:1;"
     offset="0.98873448"
     id="stop11761" /><stop
     style="stop-color:#4b4b4b;stop-opacity:1;"
     offset="0.99368465"
     id="stop11765" /><stop
     style="stop-color:#161616;stop-opacity:1;"
     offset="0.99609345"
     id="stop11763" /><stop
     style="stop-color:#0f0f0f;stop-opacity:1;"
     offset="1"
     id="stop4470" /></linearGradient>
		 <linearGradient
   inkscape:collect="always"
   xlink:href="#linearGradient4491"
   id="linearGradient4493"
   x1="420"
   y1="910"
   x2="580"
   y2="910"
   gradientUnits="userSpaceOnUse"
   gradientTransform="matrix(1,0,0,1.7045457,-399.99999,-1513.6364)" /><linearGradient
   inkscape:collect="always"
   xlink:href="#linearGradient4638"
   id="linearGradient4628"
   gradientUnits="userSpaceOnUse"
   gradientTransform="matrix(0.99738389,0,0,1,-398.91406,-799.99999)"
   x1="499.64255"
   y1="1380.7859"
   x2="451.03955"
   y2="1384.7971" /><linearGradient
   inkscape:collect="always"
   xlink:href="#linearGradient4521"
   id="linearGradient483"
   gradientUnits="userSpaceOnUse"
   gradientTransform="matrix(-0.99738389,0,0,1,598.91408,-799.99999)"
   x1="499.64255"
   y1="1380.7859"
   x2="451.18106"
   y2="1384.1741" /><linearGradient
   inkscape:collect="always"
   xlink:href="#linearGradient4657"
   id="linearGradient1141"
   gradientUnits="userSpaceOnUse"
   gradientTransform="matrix(0.99738389,0,0,1,-398.91406,-799.99999)"
   x1="500.22147"
   y1="1019.9957"
   x2="500.20911"
   y2="1379.9912" /><radialGradient
   inkscape:collect="always"
   xlink:href="#linearGradient4474-1"
   id="radialGradient1133"
   cx="1094.5637"
   cy="582.63245"
   fx="1094.5637"
   fy="582.63245"
   r="512.5"
   gradientUnits="userSpaceOnUse"
   gradientTransform="matrix(-1.9996762,0,0,-2.00001,3288.7791,1745.2646)" /></defs><g
     inkscape:label="Layer 1"
     inkscape:groupmode="layer"
     id="layer1"
     style="display:inline">
	 
	   
	   
	   
	   
	   
	   
	   
	   
	   
	   
	   
	   <path
   style="display:inline;fill:none;stroke:url(#radialGradient1133);stroke-width:50;stroke-linejoin:round;stroke-dasharray:none;stroke-opacity:1;paint-order:stroke fill markers"
   id="path1125"
   sodipodi:type="arc"
   sodipodi:cx="1100"
   sodipodi:cy="580"
   sodipodi:rx="1000"
   sodipodi:ry="1000"
   sodipodi:start="1.5707963"
   sodipodi:end="3.1415927"
   sodipodi:arc-type="arc"
   d="M 1100,1580 A 1000,1000 0 0 1 392.89321,1287.1068 1000,1000 0 0 1 100,580"
   sodipodi:open="true"
   inkscape:label="cable" /><rect
   style="opacity:1;fill:url(#linearGradient4493);fill-opacity:1;stroke:none;stroke-width:6.23049;stroke-linejoin:round;paint-order:stroke fill markers"
   id="rect449"
   width="160"
   height="375"
   x="20.00001"
   y="-149.99998"
   inkscape:label="plug_metal" /><path
   id="path4626"
   style="display:inline;fill:url(#linearGradient4628);fill-opacity:1;stroke:none;stroke-width:2.64462px;stroke-linecap:butt;stroke-linejoin:miter;stroke-opacity:1"
   d="m 19.47713,219.99971 c -2.69065,-0.037 -4.69375,1.7711 -4.45832,5.5036 l 9.08157,159.3753 c 0.23171,2.8145 2.49996,5.0941 5.26236,5.1211 h 0.59788 v 19.9988 c 0,0 8.88546,1.7682 11.28238,5.1418 1.14806,1.6159 1.4132,4.1336 0.55665,5.9221 -1.75764,3.6699 -10.17425,6.7179 -10.17425,6.7179 l 0.5515,5.9222 c 0,0 8.88547,1.7682 11.28237,5.1418 1.14807,1.6159 1.4132,4.1336 0.55664,5.9221 -1.75765,3.6699 -10.17423,6.7128 -10.17423,6.7128 l 0.55148,5.9272 c 0,0 8.88552,1.7686 11.28238,5.1418 1.14807,1.6159 1.4132,4.1337 0.55665,5.9222 -1.75765,3.6699 -10.17424,6.7127 -10.17424,6.7127 l 0.55149,5.9273 c 0,0 8.89062,1.7682 11.28753,5.1418 1.14807,1.6159 1.40805,4.1336 0.5515,5.9221 -1.75765,3.6699 -10.17425,6.7128 -10.17425,6.7128 l 0.5515,5.9273 c 0,0 8.89065,1.763 11.28752,5.1366 1.14807,1.6159 1.40805,4.1388 0.55149,5.9273 -1.75764,3.6699 -10.17424,6.7128 -10.17424,6.7128 l 0.55149,5.9273 c 0,0 8.89063,1.763 11.28754,5.1366 1.14806,1.6159 1.40804,4.1388 0.55149,5.9273 -1.75765,3.6699 -10.17424,6.7128 -10.17424,6.7128 l 0.55149,5.9273 c 0,0 8.89063,1.763 11.28753,5.1366 1.14809,1.6159 1.40803,4.1388 0.5515,5.9273 -1.75765,3.6699 -10.09728,6.7128 -10.09728,6.7128 v 5.0009 c 0,3.3168 1.74058,4.9984 5,4.9984 h 60 v -359.9987 z"
   sodipodi:nodetypes="ccccccssccssccssccssccssccssccssczcccc"
   inkscape:label="plug_rubber_left" /><path
   id="path481"
   style="display:inline;fill:url(#linearGradient483);fill-opacity:1;stroke:none;stroke-width:2.64462px;stroke-linecap:butt;stroke-linejoin:miter;stroke-opacity:1"
   d="m 180.52289,219.99971 c 2.69065,-0.037 4.69375,1.7711 4.45832,5.5036 l -9.08157,159.3753 c -0.23171,2.8145 -2.49996,5.0941 -5.26236,5.1211 h -0.59788 v 19.9988 c 0,0 -8.88546,1.7682 -11.28238,5.1418 -1.14806,1.6159 -1.4132,4.1336 -0.55665,5.9221 1.75764,3.6699 10.17425,6.7179 10.17425,6.7179 l -0.5515,5.9222 c 0,0 -8.88547,1.7682 -11.28237,5.1418 -1.14807,1.6159 -1.4132,4.1336 -0.55664,5.9221 1.75765,3.6699 10.17423,6.7128 10.17423,6.7128 l -0.55148,5.9272 c 0,0 -8.88552,1.7686 -11.28238,5.1418 -1.14807,1.6159 -1.4132,4.1337 -0.55665,5.9222 1.75765,3.6699 10.17424,6.7127 10.17424,6.7127 l -0.55149,5.9273 c 0,0 -8.89062,1.7682 -11.28753,5.1418 -1.14807,1.6159 -1.40805,4.1336 -0.5515,5.9221 1.75765,3.6699 10.17425,6.7128 10.17425,6.7128 l -0.5515,5.9273 c 0,0 -8.89065,1.763 -11.28752,5.1366 -1.14807,1.6159 -1.40805,4.1388 -0.55149,5.9273 1.75764,3.6699 10.17424,6.7128 10.17424,6.7128 l -0.55149,5.9273 c 0,0 -8.89063,1.763 -11.28754,5.1366 -1.14806,1.6159 -1.40804,4.1388 -0.55149,5.9273 1.75765,3.6699 10.17424,6.7128 10.17424,6.7128 l -0.55149,5.9273 c 0,0 -8.89063,1.763 -11.28753,5.1366 -1.14809,1.6159 -1.40803,4.1388 -0.5515,5.9273 1.75765,3.6699 10.09728,6.7128 10.09728,6.7128 0,0 0,1.6841 0,5.0009 0,3.3168 -1.74058,4.9984 -5,4.9984 -16.66667,0 -33.33333,0 -50,0 v -359.9987 z"
   sodipodi:nodetypes="ccccccssccssccssccssccssccssccssczcccc"
   inkscape:label="plug_rubber_right" /><path
   id="path1087"
   style="display:inline;opacity:1;fill:url(#linearGradient1141);fill-opacity:1;stroke:none;stroke-width:2.64462px;stroke-linecap:butt;stroke-linejoin:miter;stroke-opacity:1"
   d="m 19.47828,219.99971 c -2.69065,-0.037 -4.69511,1.7711 -4.45968,5.5036 l 9.07955,159.3753 c 0.23171,2.8145 2.50343,5.0941 5.26583,5.1211 h 0.59428 v 19.9988 c 0,0 8.88921,1.7682 11.28613,5.1418 1.14806,1.6159 1.40949,4.1336 0.55294,5.9221 -1.75764,3.6699 -10.16992,6.7179 -10.16992,6.7179 l 0.54777,5.9222 c 0,0 8.88923,1.7682 11.28613,5.1418 1.14807,1.6159 1.4095,4.1336 0.55294,5.9221 -1.75765,3.6699 -10.17509,6.7128 -10.17509,6.7128 l 0.55294,5.9272 c 0,0 8.8841,1.7687 11.28096,5.1418 1.14807,1.6159 1.41466,4.1337 0.55811,5.9222 -1.75765,3.6699 -10.17509,6.7127 -10.17509,6.7127 l 0.55294,5.9273 c 0,0 8.88922,1.7682 11.28613,5.1418 1.14807,1.6159 1.40949,4.1336 0.55294,5.9221 -1.75765,3.6699 -10.17509,6.7128 -10.17509,6.7128 l 0.55293,5.9273 c 0,0 8.88927,1.763 11.28614,5.1366 1.14807,1.6159 1.40949,4.1388 0.55293,5.9273 -1.75763,3.6699 -10.17508,6.7128 -10.17508,6.7128 l 0.55293,5.9273 c 0,0 8.88923,1.763 11.28614,5.1366 1.14805,1.6159 1.40948,4.1388 0.55293,5.9273 -1.75764,3.6699 -10.17509,6.7128 -10.17509,6.7128 l 0.55294,5.9273 c 0,0 8.88924,1.763 11.28613,5.1366 1.14809,1.6159 1.40947,4.1388 0.55294,5.9273 -1.75765,3.6699 -10.09757,6.7128 -10.09757,6.7128 v 5.0022 c 0,3.3168 1.73769,4.9971 4.99711,4.9971 33.33302,0 66.66604,0 99.99906,0 3.25942,0 5.00228,-1.6803 5.00228,-4.9971 v -5.0022 c 0,0 -8.33993,-3.0429 -10.09757,-6.7128 -0.85653,-1.7885 -0.59515,-4.3114 0.55293,-5.9273 2.3969,-3.3736 11.28614,-5.1366 11.28614,-5.1366 l 0.55293,-5.9273 c 0,0 -8.41744,-3.0429 -10.17508,-6.7128 -0.85655,-1.7885 -0.59513,-4.3114 0.55293,-5.9273 2.39691,-3.3736 11.28614,-5.1366 11.28614,-5.1366 l 0.55293,-5.9273 c 0,0 -8.41745,-3.0429 -10.17509,-6.7128 -0.85656,-1.7885 -0.59513,-4.3114 0.55294,-5.9273 2.39687,-3.3736 11.28613,-5.1366 11.28613,-5.1366 l 0.55294,-5.9273 c 0,0 -8.41744,-3.0429 -10.17509,-6.7128 -0.85655,-1.7885 -0.6003,-4.3062 0.54777,-5.9221 2.39691,-3.3736 11.2913,-5.1418 11.2913,-5.1418 l 0.54777,-5.9273 c 0,0 -8.41227,-3.0428 -10.16992,-6.7127 -0.85655,-1.7885 -0.59513,-4.3063 0.55294,-5.9222 2.39686,-3.3731 11.28613,-5.1418 11.28613,-5.1418 l 0.54777,-5.9272 c 0,0 -8.41744,-3.0429 -10.17509,-6.7128 -0.85656,-1.7885 -0.58996,-4.3062 0.55811,-5.9221 2.3969,-3.3736 11.28096,-5.1418 11.28096,-5.1418 l 0.55294,-5.9222 c 0,0 -8.41745,-3.048 -10.17509,-6.7179 -0.85655,-1.7885 -0.58995,-4.3062 0.55811,-5.9221 2.39692,-3.3736 11.28096,-5.1418 11.28096,-5.1418 v -19.9988 h 0.59945 c 2.7624,-0.027 5.02895,-2.3066 5.26066,-5.1211 l 9.08472,-159.3753 c 0.23543,-3.7325 -1.76903,-5.5406 -4.45968,-5.5036 -53.68148,0 -107.36295,0 -161.04443,0 z"
   sodipodi:nodetypes="ccccccssccssccssccssccssccssccsscsccscssccssccssccssccssccssccssccccccc"
   inkscape:label="plug_rubber_vertical_shading" /></g></svg>
