<?xml version="1.0" encoding="UTF-8" standalone="no"?>
<!--
Copyright 2024 Simon Vetter

This file is part of Stereophonic Calculator.

Stereophonic Calculator is free software: you can redistribute it and/or modify it under the terms
of the GNU General Public License as published by the Free Software Foundation, either version 3 of
the License, or (at your option) any later version.

Stereophonic Calculator is distributed in the hope that it will be useful, but WITHOUT ANY WARRANTY;
without even the implied warranty of MERCHANTABILITY or FITNESS FOR A PARTICULAR PURPOSE. See the
GNU General Public License for more details.

You should have received a copy of the GNU General Public License along with Stereophonic
Calculator. If not, see <https://www.gnu.org/licenses/>.
-->

<svg
   width="30mm"
   height="30mm"
   viewBox="0 0 300 300"
   version="1.1"
   id="svg5"
   inkscape:version="1.2.2 (732a01da63, 2022-12-09)"
   sodipodi:docname="microphone_with_clamp.svg"
   xml:space="preserve"
   inkscape:export-filename="omni.png"
   inkscape:export-xdpi="254.00073"
   inkscape:export-ydpi="254.00073"
   xmlns:inkscape="http://www.inkscape.org/namespaces/inkscape"
   xmlns:sodipodi="http://sodipodi.sourceforge.net/DTD/sodipodi-0.dtd"
   xmlns:xlink="http://www.w3.org/1999/xlink"
   xmlns="http://www.w3.org/2000/svg"
   xmlns:svg="http://www.w3.org/2000/svg"><sodipodi:namedview
     id="namedview7"
     pagecolor="#505050"
     bordercolor="#eeeeee"
     borderopacity="1"
     inkscape:showpageshadow="0"
     inkscape:pageopacity="0"
     inkscape:pagecheckerboard="false"
     inkscape:deskcolor="#505050"
     inkscape:document-units="mm"
     showgrid="false"
     inkscape:zoom="2.5208333"
     inkscape:cx="-5.7520662"
     inkscape:cy="-14.479339"
     inkscape:current-layer="layer1"
     inkscape:window-width="3840"
     inkscape:window-height="2136"
     inkscape:window-x="3840"
     inkscape:window-y="0"
     inkscape:window-maximized="1" /><defs
     id="defs2"><linearGradient
       id="linearGradient39"
       inkscape:collect="always"><stop
         style="stop-color:#595959;stop-opacity:1;"
         offset="0"
         id="stop40" /><stop
         style="stop-color:#1a1a1a;stop-opacity:1;"
         offset="0.2"
         id="stop42" /><stop
         style="stop-color:#333333;stop-opacity:1;"
         offset="0.40000001"
         id="stop43" /><stop
         style="stop-color:#a6a6a6;stop-opacity:1;"
         offset="1"
         id="stop41" /></linearGradient><linearGradient
       id="linearGradient36"
       inkscape:collect="always"><stop
         style="stop-color:#000000;stop-opacity:1;"
         offset="0"
         id="stop36" /><stop
         style="stop-color:#262626;stop-opacity:1;"
         offset="0.60000002"
         id="stop38" /><stop
         style="stop-color:#333333;stop-opacity:1;"
         offset="0.80000001"
         id="stop39" /><stop
         style="stop-color:#595959;stop-opacity:1;"
         offset="1"
         id="stop37" /></linearGradient><linearGradient
       inkscape:collect="always"
       xlink:href="#linearGradient36"
       id="linearGradient37"
       x1="-10"
       y1="600"
       x2="30"
       y2="600"
       gradientUnits="userSpaceOnUse"
       gradientTransform="translate(40.000001)" /><linearGradient
       inkscape:collect="always"
       xlink:href="#linearGradient39"
       id="linearGradient41"
       x1="170"
       y1="600"
       x2="210"
       y2="600"
       gradientUnits="userSpaceOnUse"
       gradientTransform="translate(40.000001)" /></defs><g
     inkscape:label="Layer 1"
     inkscape:groupmode="layer"
     id="layer1"
     style="display:inline"
     transform="translate(10.000002,-450.00001)">
	 <path
   id="rect322"
   style="display:inline;fill:#333333;stroke-width:35.3553;stroke-linejoin:round;paint-order:stroke fill markers"
   d="m 140,450.00001 -6.27406,6.27405 -6.79659,-5.70401 -5.70767,6.80024 -7.26797,-5.09014 -5.09013,7.26797 -7.68453,-4.43605 -4.436056,7.68818 -8.046286,-3.75274 -3.749086,8.04264 -8.338612,-3.03655 -3.03654,8.34226 -8.572474,-2.29841 -2.298416,8.57248 -8.736906,-1.54203 -1.542022,8.74057 -8.839223,-0.77467 -0.774666,8.83921 h -8.872106 v 8.87577 l -8.842874,0.77466 0.774665,8.83922 -8.740559,1.54203 1.542022,8.74056 -8.572473,2.29476 2.298417,8.57247 -8.3422662,3.03655 3.03654,8.3386 -8.04263595,3.7491 3.75274895,8.04628 -7.688185,4.43606 4.43604905,7.68452 -7.26796605,5.09014 5.090139,7.26797 -6.800245,5.70401 5.704015,6.80025 -6.2740508,6.27405 6.2740508,6.27406 -5.704015,6.80025 6.800245,5.70401 -5.090139,7.26797 7.27162705,5.09014 -4.43971005,7.68818 7.684525,4.43605 -3.74908895,8.04263 8.04263595,3.74909 -3.03654,8.34226 8.3386112,3.03655 -2.294762,8.56881 8.572473,2.29842 -1.542022,8.73691 8.740559,1.54202 -0.774665,8.84287 8.842874,0.77467 v 8.87211 h 8.872106 l 0.774666,8.83921 8.839223,-0.77466 1.542022,8.74056 8.736906,-1.54202 2.298416,8.57247 8.572474,-2.29842 3.03654,8.34227 8.338612,-3.03289 3.749086,8.04263 8.046286,-3.75274 4.436056,7.68454 7.68453,-4.43606 5.09013,7.26797 7.26797,-5.09014 5.70767,6.80025 6.79659,-5.70402 6.27406,6.27406 6.27405,-6.27406 6.80025,5.70402 5.70767,-6.80025 7.26797,5.09014 5.09013,-7.26797 7.68453,4.43606 4.43606,-7.68089 8.04263,3.74909 3.75274,-8.04628 8.3386,3.03654 3.03655,-8.33861 8.56882,2.29476 2.29842,-8.57247 8.74056,1.54202 1.54202,-8.74056 8.83922,0.77466 0.77467,-8.83921 h 8.87211 v -8.87211 l 8.83921,-0.77467 -0.77466,-8.84287 8.74421,-1.54202 -1.54202,-8.74056 8.57248,-2.29477 -2.29842,-8.57247 8.33861,-3.03289 -3.03654,-8.33861 8.04628,-3.75274 -3.74909,-8.04263 7.68454,-4.43605 -4.43971,-7.68818 7.27163,-5.09014 -5.09014,-7.26797 6.79658,-5.70401 -5.70401,-6.80025 6.27406,-6.27406 -6.27406,-6.27405 5.70401,-6.80025 -6.79658,-5.70401 5.09014,-7.26797 -7.26798,-5.09014 4.43606,-7.68452 -7.68819,-4.43606 3.75274,-8.04628 -8.04263,-3.7491 3.03289,-8.3386 -8.33861,-3.03655 2.29842,-8.57247 -8.57248,-2.29842 1.54202,-8.7369 -8.74421,-1.54203 0.77466,-8.83922 -8.83921,-0.77466 v -8.87577 h -8.87211 l -0.77467,-8.83921 -8.83922,0.77467 -1.54202,-8.74057 -8.74056,1.54203 -2.29842,-8.57248 -8.56882,2.29476 -3.03655,-8.33861 -8.34226,3.03655 -3.74908,-8.04264 -8.04263,3.74909 -4.43606,-7.68453 -7.68453,4.43605 -5.09013,-7.26797 -7.26797,5.09014 -5.70767,-6.80024 -6.80025,5.70401 z"
   inkscape:label="wheel" />
	   <rect
   style="display:inline;opacity:1;fill:url(#linearGradient41);stroke:none;stroke-width:5;stroke-linecap:round"
   id="rect3"
   width="40"
   height="200"
   x="210"
   y="500"
   rx="5"
   ry="5"
   inkscape:label="clamp_right" /><rect
   style="display:inline;opacity:1;fill:url(#linearGradient37);stroke:none;stroke-width:5;stroke-linecap:round"
   id="rect31"
   width="40"
   height="200"
   x="30"
   y="500"
   rx="5"
   ry="5"
   inkscape:label="clamp_left" /></g></svg>
